<svg width="24" height="24" viewBox="0 0 24 24" fill="none" xmlns="http://www.w3.org/2000/svg">
<path d="M20.693 17.3306C21.0505 15.9971 21.0965 14.5992 20.8273 13.2451C20.5581 11.891 19.9809 10.617 19.1406 9.52166C18.3002 8.4263 17.2191 7.53895 15.9809 6.92829C14.7427 6.31762 13.3806 6 12 6C10.6194 6 9.25731 6.31762 8.01911 6.92829C6.78092 7.53895 5.69981 8.4263 4.85943 9.52166C4.01905 10.617 3.44194 11.891 3.17274 13.2451C2.90355 14.5992 2.94948 15.9971 3.307 17.3306" stroke="#D2D2D2" stroke-linecap="round"/>
<path d="M12.7637 15.5854C13.2507 16.2954 12.9077 17.3774 11.9977 18.0024C11.0877 18.6284 9.95473 18.5604 9.46773 17.8514C8.94773 17.0954 7.15373 12.8444 6.06473 10.2144C5.85973 9.71937 6.46473 9.30337 6.85473 9.67237C8.91873 11.6324 12.2447 14.8294 12.7637 15.5854Z" stroke="#D2D2D2"/>
<path d="M11.9977 6V8M5.63369 8.636L7.04769 10.05M18.3617 8.636L16.9477 10.05M20.6907 17.33L18.7597 16.812M3.30469 17.33L5.23569 16.812" stroke="#D2D2D2" stroke-linecap="round"/>
</svg>
